# File created by Blade
# Date/Time:  Fri Jan 16 19:00:24 2015
# Frame Rate: 120.000 fps
#------------------------------------------------------
:FULLY-SPECIFIED
:DEGREES
3768
root 30.412494 34.673085 -18.649106 176.177787 -47.557325 -178.449294
Spine 4.159350 13.141393 -3.827602
Head 7.600030 -23.820422 10.561293
LeftShoulder -6.509311 -21.959289 12.063410
LeftArm -5.449780 1.568537 -18.664778
LeftForeArm -0.945160 -0.000000 1.374141
LeftHand -3.181239 -0.000000 -3.380382
LeftHandThumb1 -26.253704 0.000000 33.147579
RightShoulder -11.704083 -12.932098 2.974027
RightArm 19.684995 28.963898 34.485490
RightForeArm -17.630565 0.000000 10.216473
RightHand -6.254755 -0.000000 0.763002
RightHandThumb1 -24.326973 -0.000000 -32.862282
LeftUpLeg -16.136730 -18.906784 11.848102
LeftLeg 6.540877 -0.000000 -0.000000
LeftFoot -19.828834 21.765547 -14.858147
LeftToeBase 21.688722 -0.000000 -0.000000
RightUpLeg -0.271481 17.852500 10.278110
RightLeg 24.641988 -0.000000 -0.000000
RightFoot -32.522685 -12.628837 11.114307
RightToeBase 23.379611 -0.000000 -0.000000
3769
root 30.219536 34.662152 -18.701854 176.193363 -46.226450 -178.368308
Spine 3.876761 12.889423 -3.849026
Head 7.043724 -23.356056 10.361027
LeftShoulder -6.601129 -21.931230 12.181643
LeftArm -5.307503 1.102013 -18.203415
LeftForeArm -1.051916 -0.000000 1.469609
LeftHand -3.241530 0.000000 -3.233898
LeftHandThumb1 -26.253704 0.000000 33.147579
RightShoulder -11.831664 -12.917251 2.819598
RightArm 18.947093 29.633681 34.152077
RightForeArm -17.677897 -0.000000 10.401560
RightHand -6.521481 -0.000000 0.191377
RightHandThumb1 -24.326973 -0.000000 -32.862282
LeftUpLeg -15.798331 -17.995983 11.947604
LeftLeg 6.472681 -0.000000 -0.000000
LeftFoot -19.770115 21.416755 -14.767827
LeftToeBase 21.754861 -0.000000 -0.000000
RightUpLeg -0.037531 18.547975 10.224084
RightLeg 24.710718 -0.000000 -0.000000
RightFoot -32.591491 -12.006922 11.123385
RightToeBase 23.140275 -0.000000 -0.000000
3770
root 30.013904 34.652657 -18.760386 176.199982 -44.953018 -178.293989
Spine 3.567518 12.596384 -3.865384
Head 6.557115 -22.949267 10.146865
LeftShoulder -6.583565 -22.030861 12.266962
LeftArm -5.342342 0.988172 -17.730705
LeftForeArm -1.206024 -0.000000 1.633669
LeftHand -3.459855 -0.000000 -2.964079
LeftHandThumb1 -26.253704 0.000000 33.147579
RightShoulder -12.033849 -13.105811 2.705467
RightArm 18.410205 30.470918 33.858993
RightForeArm -17.706132 0.000000 10.553631
RightHand -6.620985 -0.000000 0.028666
RightHandThumb1 -24.326973 -0.000000 -32.862282
LeftUpLeg -15.359147 -17.218782 11.999481
LeftLeg 6.371452 -0.000000 -0.000000
LeftFoot -19.785028 21.509959 -14.701479
LeftToeBase 21.691342 -0.000000 -0.000000
RightUpLeg 0.254731 19.132260 10.143115
RightLeg 24.718403 -0.000000 -0.000000
RightFoot -32.694853 -11.404888 11.061701
RightToeBase 23.247418 -0.000000 -0.000000
3771
root 29.817222 34.640121 -18.810246 176.233173 -43.648083 -178.176217
Spine 3.233771 12.304879 -3.833381
Head 6.033519 -22.553359 9.958187
LeftShoulder -6.637137 -22.029651 12.359344
LeftArm -5.268865 0.763611 -17.312760
LeftForeArm -1.482367 -0.000000 1.640048
LeftHand -3.274393 -0.000000 -2.580162
LeftHandThumb1 -26.253704 0.000000 33.147579
RightShoulder -12.133906 -13.186207 2.467150
RightArm 17.837453 31.222836 33.579070
RightForeArm -17.758230 0.000000 10.502554
RightHand -6.658605 -0.000000 -0.399161
RightHandThumb1 -24.326973 -0.000000 -32.862282
LeftUpLeg -15.043515 -16.052015 11.982922
LeftLeg 6.521861 -0.000000 -0.000000
LeftFoot -19.870773 21.557091 -14.674683
LeftToeBase 21.685072 -0.000000 -0.000000
RightUpLeg 0.423243 19.778787 10.069650
RightLeg 24.804738 -0.000000 -0.000000
RightFoot -32.775276 -10.741840 11.086637
RightToeBase 23.266868 -0.000000 -0.000000
3772
root 29.622608 34.626043 -18.859425 176.314285 -42.407652 -178.040053
Spine 2.798429 11.959048 -3.810820
Head 5.619179 -22.208378 9.796181
LeftShoulder -6.564118 -22.061878 12.437638
LeftArm -5.294599 0.639064 -16.846210
LeftForeArm -1.948050 -0.000000 1.623706
LeftHand -3.266310 -0.000000 -2.598632
LeftHandThumb1 -26.253704 0.000000 33.147579
RightShoulder -12.200989 -13.295208 2.176729
RightArm 17.207672 31.916305 33.314408
RightForeArm -17.771419 -0.000000 10.502151
RightHand -6.633530 -0.000000 -0.570179
RightHandThumb1 -24.326973 -0.000000 -32.862282
LeftUpLeg -14.810644 -14.760369 11.927455
LeftLeg 6.758305 -0.000000 -0.000000
LeftFoot -20.080932 21.690944 -14.735804
LeftToeBase 21.692243 -0.000000 -0.000000
RightUpLeg 0.518842 20.368701 9.980562
RightLeg 24.897580 -0.000000 -0.000000
RightFoot -32.833556 -10.092157 11.109581
RightToeBase 23.065364 -0.000000 -0.000000
3773
root 29.426245 34.611629 -18.910752 176.401291 -41.190000 -177.863598
Spine 2.311807 11.540748 -3.752966
Head 5.253462 -21.867332 9.642701
LeftShoulder -6.539975 -22.044997 12.512357
LeftArm -5.317246 0.672504 -16.388167
LeftForeArm -2.523267 -0.000000 1.613216
LeftHand -3.261845 -0.000000 -2.595987
LeftHandThumb1 -26.253704 0.000000 33.147579
RightShoulder -12.246404 -13.458290 1.946744
RightArm 16.667027 32.573822 32.921291
RightForeArm -17.750516 -0.000000 10.430883
RightHand -6.706687 -0.000000 -0.739789
RightHandThumb1 -24.326973 -0.000000 -32.862282
LeftUpLeg -14.595912 -13.359245 11.850455
LeftLeg 7.058044 -0.000000 -0.000000
LeftFoot -20.188877 21.824992 -14.503458
LeftToeBase 21.670415 -0.000000 -0.000000
RightUpLeg 0.581970 20.899398 9.891100
RightLeg 24.963791 -0.000000 -0.000000
RightFoot -32.940836 -9.433503 11.110050
RightToeBase 23.281621 -0.000000 -0.000000
3774
root 29.227014 34.594603 -18.962000 176.491330 -39.990973 -177.657827
Spine 1.784442 11.100983 -3.655367
Head 4.934057 -21.561013 9.481741
LeftShoulder -6.575449 -22.051396 12.690388
LeftArm -5.260087 0.249518 -16.049315
LeftForeArm -2.579570 -0.000000 1.549761
LeftHand -3.477283 0.000000 -2.644292
LeftHandThumb1 -26.253704 0.000000 33.147579
RightShoulder -12.274099 -13.544201 1.681064
RightArm 16.061703 32.977386 32.402297
RightForeArm -17.544766 -0.000000 10.310213
RightHand -6.754788 -0.000000 -1.065551
RightHandThumb1 -24.326973 -0.000000 -32.862282
LeftUpLeg -14.389721 -11.905402 11.761093
LeftLeg 7.402013 -0.000000 -0.000000
LeftFoot -20.251713 21.908232 -14.244966
LeftToeBase 21.854516 -0.000000 -0.000000
RightUpLeg 0.616180 21.394606 9.804460
RightLeg 25.064269 -0.000000 -0.000000
RightFoot -32.847652 -8.528280 11.536030
RightToeBase 22.261893 -0.000000 -0.000000
3775
root 29.027861 34.578575 -19.007566 176.655509 -38.853730 -177.486164
Spine 1.212470 10.608393 -3.598595
Head 4.651727 -21.286484 9.388688
LeftShoulder -6.461024 -22.301739 12.814969
LeftArm -5.469186 0.159404 -15.584345
LeftForeArm -2.743065 -0.000000 1.532817
LeftHand -3.503757 -0.000000 -2.966156
LeftHandThumb1 -26.253704 0.000000 33.147579
RightShoulder -12.261807 -13.603128 1.488522
RightArm 15.237020 32.949827 31.542688
RightForeArm -16.795546 -0.000000 10.262788
RightHand -6.916375 -0.000000 -1.165681
RightHandThumb1 -24.326973 -0.000000 -32.862282
LeftUpLeg -14.257789 -10.534741 11.645986
LeftLeg 7.768811 -0.000000 -0.000000
LeftFoot -19.862772 22.021775 -13.710199
LeftToeBase 22.615191 -0.000000 -0.000000
RightUpLeg 0.581897 21.770379 9.616962
RightLeg 25.088726 -0.000000 -0.000000
RightFoot -33.095711 -7.936904 11.087792
RightToeBase 23.593586 -0.000000 -0.000000
